<?xml version="1.0" encoding="UTF-8"?>
<svg id="Layer_1" data-name="Layer 1" xmlns="http://www.w3.org/2000/svg" viewBox="0 0 800 800">
  <defs>
    <style>
      .cls-1 {
        fill: #00d9a5;
      }

      .cls-2 {
        fill: #001819;
      }

      .cls-3 {
        fill: #fff;
      }
    </style>
  </defs>
  <rect class="cls-2" x="0" width="800" height="800"/>
  <g>
    <g>
      <path class="cls-3" d="M253.13,397.12c-1.66,1.49-3.54,2.22-5.77,2.22h-3.78v-45.29h-9.33v54.62h13.11c4.62,0,8.69-1.56,12.14-4.69l49.94-49.93h-13.25l-43.06,43.07Z"/>
      <path class="cls-3" d="M323.23,354.05h72.61v9.33h-72.61v-9.33ZM323.23,408.67h72.61v-9.33h-63.28v-13.31h63.28v-9.33h-72.61v31.97Z"/>
      <path class="cls-3" d="M423.25,357.72c-4.16,2.43-7.51,5.77-9.94,9.94-2.44,4.17-3.67,8.78-3.67,13.7,0,3.68.72,7.25,2.15,10.61,1.42,3.36,3.37,6.3,5.82,8.74,2.44,2.44,5.38,4.4,8.73,5.82,3.36,1.43,6.93,2.15,10.61,2.15h29.34c4.37,0,8.16-1.58,11.27-4.69,3.11-3.11,4.68-6.92,4.68-11.34v-15.95h-38.09v9.33h28.76v6.62c0,1.84-.65,3.39-1.98,4.72-1.33,1.33-2.85,1.97-4.64,1.97h-29.34c-5.03,0-9.19-1.72-12.73-5.25-3.54-3.53-5.25-7.7-5.25-12.73s1.72-9.19,5.25-12.73c3.54-3.54,7.7-5.25,12.73-5.25h45.3v-9.33h-45.3c-4.92,0-9.53,1.24-13.7,3.67Z"/>
      <path class="cls-3" d="M552.64,354.05c-4.62,0-8.68,1.55-12.14,4.68l-49.93,49.94h13.24l43.06-43.07c1.66-1.5,3.54-2.22,5.77-2.22h3.78v45.29h9.33v-54.62h-13.11Z"/>
    </g>
    <g>
      <path class="cls-1" d="M244.08,426.29h16.77v2.19h-16.77c-2.12,0-3.92.74-5.41,2.23-1.49,1.49-2.23,3.29-2.23,5.41s.74,3.92,2.23,5.41,3.29,2.23,5.41,2.23h16.77v2.19h-16.77c-1.78,0-3.42-.44-4.93-1.32-1.51-.88-2.7-2.07-3.58-3.58-.88-1.51-1.32-3.15-1.32-4.93s.44-3.42,1.32-4.93c.88-1.51,2.07-2.7,3.58-3.58,1.51-.88,3.15-1.32,4.93-1.32Z"/>
      <path class="cls-1" d="M279.94,426.29h2.19v8.74h22.22v-8.74h2.19v19.66h-2.19v-8.73h-22.22v8.73h-2.19v-19.66Z"/>
      <path class="cls-1" d="M347.18,426.29h4.35v19.66h-2.19v-17.47h-2.16c-1.03,0-1.93.35-2.7,1.04l-16.43,16.43h-3.12l18.06-18.06c1.18-1.07,2.57-1.6,4.18-1.6Z"/>
      <path class="cls-1" d="M373.47,440.47v5.48h-2.19v-7.67h21.15c1.35,0,2.5-.48,3.45-1.43.95-.96,1.43-2.11,1.43-3.47s-.48-2.51-1.43-3.47c-.95-.96-2.11-1.43-3.45-1.43h-21.15v-2.19h21.15c1.95,0,3.61.69,5,2.08,1.38,1.39,2.08,3.06,2.08,5.03,0,1.61-.48,3.04-1.45,4.3-.96,1.25-2.2,2.1-3.72,2.53l5.17,5.73h-3.09l-4.94-5.48h-18Z"/>
      <path class="cls-1" d="M431.47,437.21v-2.19h13.29v5.45c0,1.52-.53,2.81-1.6,3.88s-2.35,1.6-3.85,1.6h-11.32c-1.33,0-2.6-.26-3.82-.77-1.22-.52-2.27-1.21-3.15-2.09-.88-.88-1.58-1.93-2.09-3.15-.52-1.22-.77-2.49-.77-3.82,0-1.78.44-3.42,1.32-4.93.88-1.51,2.07-2.7,3.58-3.58,1.51-.88,3.15-1.32,4.93-1.32h16.77v2.19h-16.77c-2.12,0-3.92.74-5.41,2.23s-2.23,3.29-2.23,5.41.74,3.92,2.23,5.41c1.49,1.49,3.29,2.23,5.41,2.23h11.32c.88,0,1.64-.32,2.29-.97.65-.65.97-1.42.97-2.32v-3.26h-11.09Z"/>
      <path class="cls-1" d="M463.97,428.48v-2.19h26.6v2.19h-26.6ZM490.57,437.21h-24.41v6.54h24.41v2.19h-26.6v-10.93h26.6v2.19Z"/>
    </g>
  </g>
</svg>